<?xml version="1.0" encoding="UTF-8" standalone="no"?>
<svg
   xmlns:dc="http://purl.org/dc/elements/1.1/"
   xmlns:cc="http://creativecommons.org/ns#"
   xmlns:rdf="http://www.w3.org/1999/02/22-rdf-syntax-ns#"
   xmlns:svg="http://www.w3.org/2000/svg"
   xmlns="http://www.w3.org/2000/svg"
   xmlns:sodipodi="http://sodipodi.sourceforge.net/DTD/sodipodi-0.dtd"
   xmlns:inkscape="http://www.inkscape.org/namespaces/inkscape"
   id="svg6"
   version="1.1"
   viewBox="0 0 1000 1000"
   sodipodi:docname="battery-75-charging.svg"
   width="1000"
   height="1000"
   inkscape:version="0.92.4 5da689c313, 2019-01-14">
  <sodipodi:namedview
     pagecolor="#ffffff"
     bordercolor="#666666"
     borderopacity="1"
     objecttolerance="10"
     gridtolerance="10"
     guidetolerance="10"
     inkscape:pageopacity="0"
     inkscape:pageshadow="2"
     inkscape:window-width="1278"
     inkscape:window-height="1404"
     id="namedview21"
     showgrid="false"
     inkscape:zoom="0.4609375"
     inkscape:cx="256"
     inkscape:cy="256"
     inkscape:window-x="1280"
     inkscape:window-y="0"
     inkscape:window-maximized="0"
     inkscape:current-layer="svg6" />
  <metadata
     id="metadata12">
    <rdf:RDF>
      <cc:Work
         rdf:about="">
        <dc:format>image/svg+xml</dc:format>
        <dc:type
           rdf:resource="http://purl.org/dc/dcmitype/StillImage" />
        <dc:title></dc:title>
      </cc:Work>
    </rdf:RDF>
  </metadata>
  <defs
     id="defs10" />
  <path
     id="path2"
     d="M 773.4375,281.25 H 125 c -51.5625,0 -93.75,42.1875 -93.75,93.75 v 250 c 0,51.5625 42.1875,93.75 93.75,93.75 h 648.4375 c 51.5625,0 93.75,-42.1875 93.75,-93.75 V 375 c 0,-51.5625 -42.1875,-93.75 -93.75,-93.75 z M 812.5,625 c 0,21.48437 -17.57813,39.0625 -39.0625,39.0625 H 125 C 103.51563,664.0625 85.9375,646.48437 85.9375,625 V 375 c 0,-21.48437 17.57813,-39.0625 39.0625,-39.0625 h 648.4375 c 21.48437,0 39.0625,17.57813 39.0625,39.0625 z m 93.75,-225.39063 v 200.78125 c 31.25,0 62.5,-54.10156 62.5,-100.39062 0,-46.28906 -31.25,-100.39063 -62.5,-100.39063 z"
     inkscape:connector-curvature="0"
     style="stroke-width:1.953125" />
  <path
     id="path4"
     d="M 587.89062,375 H 148.4375 C 135.54688,375 125,385.54687 125,398.4375 v 203.125 C 125,614.45312 135.54688,625 148.4375,625 h 439.45312 c 12.89063,0 23.4375,-10.54688 23.4375,-23.4375 V 398.4375 C 611.32812,385.54687 600.78125,375 587.89062,375 Z M 427.34375,601.5625 443.75,517.57812 H 390.625 L 478.90625,398.4375 462.5,482.42187 h 53.125 z"
     inkscape:connector-curvature="0"
     style="stroke-width:1.953125" />
</svg>
