<?xml version="1.0" encoding="UTF-8" standalone="no"?>
<svg
   xmlns:dc="http://purl.org/dc/elements/1.1/"
   xmlns:cc="http://creativecommons.org/ns#"
   xmlns:rdf="http://www.w3.org/1999/02/22-rdf-syntax-ns#"
   xmlns:svg="http://www.w3.org/2000/svg"
   xmlns="http://www.w3.org/2000/svg"
   xmlns:sodipodi="http://sodipodi.sourceforge.net/DTD/sodipodi-0.dtd"
   xmlns:inkscape="http://www.inkscape.org/namespaces/inkscape"
   viewBox="0 0 1000 1000"
   version="1.1"
   id="svg6"
   sodipodi:docname="battery-00.svg"
   width="1000"
   height="1000"
   inkscape:version="0.92.4 5da689c313, 2019-01-14">
  <sodipodi:namedview
     pagecolor="#ffffff"
     bordercolor="#666666"
     borderopacity="1"
     objecttolerance="10"
     gridtolerance="10"
     guidetolerance="10"
     inkscape:pageopacity="0"
     inkscape:pageshadow="2"
     inkscape:window-width="1278"
     inkscape:window-height="466"
     id="namedview6"
     showgrid="false"
     inkscape:zoom="0.16296602"
     inkscape:cx="164.74721"
     inkscape:cy="525.31623"
     inkscape:window-x="0"
     inkscape:window-y="936"
     inkscape:window-maximized="0"
     inkscape:current-layer="svg6" />
  <metadata
     id="metadata12">
    <rdf:RDF>
      <cc:Work
         rdf:about="">
        <dc:format>image/svg+xml</dc:format>
        <dc:type
           rdf:resource="http://purl.org/dc/dcmitype/StillImage" />
        <dc:title></dc:title>
      </cc:Work>
    </rdf:RDF>
  </metadata>
  <defs
     id="defs10" />
  <path
     d="M 774.4375,281.25 H 126 c -51.5625,0 -93.75,42.1875 -93.75,93.75 v 250 c 0,51.5625 42.1875,93.75 93.75,93.75 h 648.4375 c 51.5625,0 93.75,-42.1875 93.75,-93.75 V 375 c 0,-51.5625 -42.1875,-93.75 -93.75,-93.75 z M 813.5,625 c 0,21.48437 -17.57813,39.0625 -39.0625,39.0625 H 126 C 104.51563,664.0625 86.9375,646.48437 86.9375,625 V 375 c 0,-21.48437 17.57813,-39.0625 39.0625,-39.0625 h 648.4375 c 21.48437,0 39.0625,17.57813 39.0625,39.0625 z m 93.75,-225.39063 v 200.78125 c 31.25,0 62.5,-54.10156 62.5,-100.39062 0,-46.28906 -31.25,-100.39063 -62.5,-100.39063 z"
     id="path2"
     inkscape:connector-curvature="0"
     style="stroke-width:1.953125" />
</svg>
