<?xml version="1.0" encoding="UTF-8" standalone="no"?>
<svg
   xmlns:dc="http://purl.org/dc/elements/1.1/"
   xmlns:cc="http://creativecommons.org/ns#"
   xmlns:rdf="http://www.w3.org/1999/02/22-rdf-syntax-ns#"
   xmlns:svg="http://www.w3.org/2000/svg"
   xmlns="http://www.w3.org/2000/svg"
   height="1000"
   width="1000"
   id="svg6"
   version="1.1"
   viewBox="0 0 1000 1000">
  <metadata
     id="metadata12">
    <rdf:RDF>
      <cc:Work
         rdf:about="">
        <dc:format>image/svg+xml</dc:format>
        <dc:type
           rdf:resource="http://purl.org/dc/dcmitype/StillImage" />
        <dc:title></dc:title>
      </cc:Work>
    </rdf:RDF>
  </metadata>
  <defs
     id="defs10" />
  <path
     style="stroke-width:1.953125"
     id="path2"
     d="M 773.4375,281.25 H 125 c -51.5625,0 -93.75,42.1875 -93.75,93.75 v 250 c 0,51.5625 42.1875,93.75 93.75,93.75 h 648.4375 c 51.5625,0 93.75,-42.1875 93.75,-93.75 V 375 c 0,-51.5625 -42.1875,-93.75 -93.75,-93.75 z M 812.5,625 c 0,21.48437 -17.57813,39.0625 -39.0625,39.0625 H 125 C 103.51563,664.0625 85.9375,646.48437 85.9375,625 V 375 c 0,-21.48437 17.57813,-39.0625 39.0625,-39.0625 h 648.4375 c 21.48437,0 39.0625,17.57813 39.0625,39.0625 z m 93.75,-225.39063 v 200.78125 c 31.25,0 62.5,-54.10156 62.5,-100.39062 0,-46.28906 -31.25,-100.39063 -62.5,-100.39063 z" />
  <path
     style="stroke-width:1.953125"
     id="path4"
     d="M 685.1562,375 H 148.4375 C 135.54688,375 125,385.54687 125,398.4375 v 203.125 C 125,614.45312 135.54688,625 148.4375,625 h 536.7187 c 12.89062,0 23.43747,-10.54688 23.4375,-23.4375 l 5e-4,-203.125 C 708.59423,385.54687 698.04682,375 685.1562,375 Z" />
</svg>
