<?xml version="1.0" encoding="UTF-8" standalone="no"?>
<svg
   width="512"
   height="512"
   version="1.1"
   id="svg4"
   xmlns="http://www.w3.org/2000/svg"
   xmlns:svg="http://www.w3.org/2000/svg">
  <defs
     id="defs8" />
  <path
     d="m 216,432 h -48 c -13.25483,0 -24,-10.74517 -24,-24 V 248 c 0,-13.25483 10.74517,-24 24,-24 h 48 c 13.25483,0 24,10.74517 24,24 v 160 c 0,13.25483 -10.74517,24 -24,24 z M 88,432 H 40 C 26.745166,432 16,421.25483 16,408 v -96 c 0,-13.25483 10.745166,-24 24,-24 h 48 c 13.25483,0 24,10.74517 24,24 v 96 c 0,13.25483 -10.74517,24 -24,24 z"
     id="path2" />
</svg>
