<?xml version="1.0" encoding="UTF-8" standalone="no"?>
<svg
   xmlns:dc="http://purl.org/dc/elements/1.1/"
   xmlns:cc="http://creativecommons.org/ns#"
   xmlns:rdf="http://www.w3.org/1999/02/22-rdf-syntax-ns#"
   xmlns:svg="http://www.w3.org/2000/svg"
   xmlns="http://www.w3.org/2000/svg"
   height="1000"
   width="1000"
   viewBox="0 0 1000 1000"
   version="1.1"
   id="svg401">
  <metadata
     id="metadata407">
    <rdf:RDF>
      <cc:Work
         rdf:about="">
        <dc:format>image/svg+xml</dc:format>
        <dc:type
           rdf:resource="http://purl.org/dc/dcmitype/StillImage" />
        <dc:title></dc:title>
      </cc:Work>
    </rdf:RDF>
  </metadata>
  <defs
     id="defs405" />
  <path
     d="m 722.26498,906.25 c -9.57032,0 -18.94532,-4.88281 -24.02344,-13.67188 L 253.71029,135.35156 c -7.8125,-13.08593 -3.32031,-30.07812 9.96094,-37.69531 13.28125,-7.61719 30.27343,-3.32031 38.08593,9.96094 l 444.53125,757.22656 c 7.8125,13.08594 3.32032,30.07812 -9.96093,37.69531 -4.49219,2.53907 -9.375,3.71094 -14.0625,3.71094 z m -97.26563,-375 v -312.5 c 0,-68.75 -56.25,-125 -125,-125 -55.46875,0 -102.73437,36.71875 -118.94531,86.91406 L 615.23373,579.6875 c 6.25,-14.84375 9.76562,-31.25 9.76562,-48.4375 z m -250,0 c 0,68.75 56.25,125 125,125 7.61719,0 14.84375,-0.78125 22.07031,-1.95313 L 374.99935,403.51562 Z m 339.84375,5.85937 V 402.34375 C 714.8431,387.30469 702.53841,375 687.49935,375 c -15.03906,0 -27.34375,12.30469 -27.34375,27.34375 v 134.76562 c 0,29.68751 -8.20312,57.42188 -22.26562,81.25 l 30.46875,51.95313 C 697.46029,633.78906 714.8431,587.5 714.8431,537.10937 Z"
     id="path397"
     style="stroke-width:1.953125" />
  <path
     d="m 499.99935,697.26562 c -88.28125,0 -160.15625,-71.875 -160.15625,-160.15625 V 402.34375 C 339.8431,387.30469 327.53841,375 312.49935,375 c -15.03906,0 -27.34375,12.30469 -27.34375,27.34375 v 134.76562 c 0,109.17969 81.83594,199.60938 187.5,213.08594 V 851.5625 h -70.3125 c -15.03906,0 -27.34375,12.30469 -27.34375,27.34375 0,15.03906 12.30469,27.34375 27.34375,27.34375 h 195.3125 c 15.03906,0 27.34375,-12.30469 27.34375,-27.34375 0,-15.03906 -12.30469,-27.34375 -27.34375,-27.34375 H 527.3431 V 750.19531 c 15.42969,-1.95312 30.46875,-5.66406 44.72656,-10.74219 l -28.32031,-48.4375 c -13.86719,4.10157 -28.51562,6.25 -43.75,6.25 z"
     id="path399"
     style="stroke-width:1.953125" />
</svg>
