<?xml version="1.0" encoding="UTF-8" standalone="no"?>
<svg
   xmlns:dc="http://purl.org/dc/elements/1.1/"
   xmlns:cc="http://creativecommons.org/ns#"
   xmlns:rdf="http://www.w3.org/1999/02/22-rdf-syntax-ns#"
   xmlns:svg="http://www.w3.org/2000/svg"
   xmlns="http://www.w3.org/2000/svg"
   height="1000"
   width="1000"
   id="svg613"
   version="1.1"
   viewBox="0 0 1000 1000">
  <metadata
     id="metadata619">
    <rdf:RDF>
      <cc:Work
         rdf:about="">
        <dc:format>image/svg+xml</dc:format>
        <dc:type
           rdf:resource="http://purl.org/dc/dcmitype/StillImage" />
        <dc:title></dc:title>
      </cc:Work>
    </rdf:RDF>
  </metadata>
  <defs
     id="defs617" />
  <path
     style="stroke-width:1.953125"
     id="path609"
     d="m 500,656.25 c 68.75,0 125,-56.25 125,-125 v -312.5 c 0,-68.75 -56.25,-125 -125,-125 -68.75,0 -125,56.25 -125,125 v 312.5 c 0,68.75 56.25,125 125,125 z" />
  <path
     style="stroke-width:1.953125"
     id="path611"
     d="m 687.5,375 c -15.03906,0 -27.34375,12.30469 -27.34375,27.34375 v 134.76562 c 0,88.28125 -71.875,160.15625 -160.15625,160.15625 -88.28125,0 -160.15625,-71.875 -160.15625,-160.15625 V 402.34375 C 339.84375,387.30469 327.53906,375 312.5,375 c -15.03906,0 -27.34375,12.30469 -27.34375,27.34375 v 134.76562 c 0,109.17969 81.83594,199.60938 187.5,213.08594 V 851.5625 h -70.3125 C 387.30469,851.5625 375,863.86719 375,878.90625 375,893.94531 387.30469,906.25 402.34375,906.25 h 195.3125 C 612.69531,906.25 625,893.94531 625,878.90625 625,863.86719 612.69531,851.5625 597.65625,851.5625 h -70.3125 V 750.19531 c 105.66406,-13.47656 187.5,-103.90625 187.5,-213.08594 V 402.34375 C 714.84375,387.30469 702.53906,375 687.5,375 Z" />
</svg>
