<?xml version="1.0" encoding="UTF-8" standalone="no"?>
<svg
   xmlns:dc="http://purl.org/dc/elements/1.1/"
   xmlns:cc="http://creativecommons.org/ns#"
   xmlns:rdf="http://www.w3.org/1999/02/22-rdf-syntax-ns#"
   xmlns:svg="http://www.w3.org/2000/svg"
   xmlns="http://www.w3.org/2000/svg"
   height="1000"
   width="1000"
   id="svg8"
   version="1.1"
   viewBox="0 0 1000 1000">
  <metadata
     id="metadata14">
    <rdf:RDF>
      <cc:Work
         rdf:about="">
        <dc:format>image/svg+xml</dc:format>
        <dc:type
           rdf:resource="http://purl.org/dc/dcmitype/StillImage" />
        <dc:title></dc:title>
      </cc:Work>
    </rdf:RDF>
  </metadata>
  <defs
     id="defs12" />
  <path
     style="stroke-width:1.95312262"
     id="path2"
     d="m 420.70276,284.18035 c -4.29687,-2.14844 -8.98437,-3.125 -13.47655,-3.125 -7.03124,0 -13.86717,2.34375 -19.53123,6.83593 L 260.35139,390.62553 H 157.22652 c -17.18748,0 -31.24996,14.06248 -31.24996,31.24996 v 156.2498 c 0,17.18748 14.06248,31.24996 31.24996,31.24996 h 103.12487 l 127.34359,102.53894 c 5.66406,4.49218 12.6953,6.83593 19.53123,6.83593 4.49218,0 9.17968,-0.97656 13.47655,-3.125 10.93748,-5.27343 17.77341,-16.21092 17.77341,-28.12496 V 312.50062 c 0,-12.10936 -6.83593,-23.04684 -17.77341,-28.32027 z" />
</svg>
