<?xml version="1.0" encoding="UTF-8" standalone="no"?>
<svg
   xmlns:dc="http://purl.org/dc/elements/1.1/"
   xmlns:cc="http://creativecommons.org/ns#"
   xmlns:rdf="http://www.w3.org/1999/02/22-rdf-syntax-ns#"
   xmlns:svg="http://www.w3.org/2000/svg"
   xmlns="http://www.w3.org/2000/svg"
   height="1000"
   width="1000"
   viewBox="0 0 1000 1000"
   version="1.1"
   id="svg6">
  <metadata
     id="metadata12">
    <rdf:RDF>
      <cc:Work
         rdf:about="">
        <dc:format>image/svg+xml</dc:format>
        <dc:type
           rdf:resource="http://purl.org/dc/dcmitype/StillImage" />
        <dc:title></dc:title>
      </cc:Work>
    </rdf:RDF>
  </metadata>
  <defs
     id="defs10" />
  <path
     style="stroke-width:1.953125"
     d="m 221.09442,541.99219 55.85938,55.27343 c 6.05468,5.85938 15.625,6.25 21.875,0.58594 55.27343,-49.02344 126.17187,-75.97656 200.97656,-75.97656 74.80469,0 145.70312,26.75781 200.97656,75.97656 6.25,5.66406 15.82031,5.27344 21.875,-0.58594 l 55.85938,-55.27343 c 6.44531,-6.44532 6.25,-16.79688 -0.58594,-22.85156 C 704.68817,452.92969 606.83661,412.5 499.61005,412.5 c -107.22657,0 -205.07813,40.42969 -278.32032,106.64063 -6.44531,6.05468 -6.64062,16.40624 -0.19531,22.85156 z m 278.90625,91.21093 c -45.70312,0 -87.10937,19.14063 -116.01562,49.80469 -5.85938,6.25 -5.66407,15.82032 0.39062,21.875 L 488.67255,807.8125 c 6.25,6.25 16.40625,6.25 22.65625,0 L 615.62567,704.88281 c 6.05469,-6.05469 6.25,-15.625 0.39063,-21.875 -28.90625,-30.46875 -70.3125,-49.80469 -116.01563,-49.80469 z"
     id="path4" />
</svg>
