<?xml version="1.0" encoding="UTF-8" standalone="no"?>
<svg
   xmlns:dc="http://purl.org/dc/elements/1.1/"
   xmlns:cc="http://creativecommons.org/ns#"
   xmlns:rdf="http://www.w3.org/1999/02/22-rdf-syntax-ns#"
   xmlns:svg="http://www.w3.org/2000/svg"
   xmlns="http://www.w3.org/2000/svg"
   height="1000"
   width="1000"
   id="svg4"
   version="1.1"
   viewBox="0 0 1000 1000">
  <metadata
     id="metadata10">
    <rdf:RDF>
      <cc:Work
         rdf:about="">
        <dc:format>image/svg+xml</dc:format>
        <dc:type
           rdf:resource="http://purl.org/dc/dcmitype/StillImage" />
        <dc:title></dc:title>
      </cc:Work>
    </rdf:RDF>
  </metadata>
  <defs
     id="defs8" />
  <path
     style="stroke-width:1.953125"
     id="path2"
     d="m 796.28824,437.5 c -6.64062,0 -28.90625,0.19531 -35.15625,0.58594 l -126.75781,3.32031 c -1.36719,0 -2.73438,-0.58594 -3.32031,-1.75781 L 441.0148,155.07813 C 435.35074,146.09375 425.19449,140.625 414.64762,140.625 h -46.28907 c -10.9375,0 -14.64843,10.9375 -10.74218,21.09375 L 455.46793,440.625 c 0.97656,2.53906 -0.78125,5.27344 -3.51563,5.27344 l -239.0625,3.51562 c -5.07812,0.19531 -9.76562,-2.14844 -12.89062,-6.05469 l -72.26563,-87.89062 c -5.85938,-7.61719 -15.03906,-11.91406 -24.60938,-11.91406 H 70.311674 c -5.46875,0 -9.179687,5.27344 -7.421875,10.35156 l 38.867191,134.17969 c 2.92968,7.42187 2.92968,15.82031 0,23.24218 L 62.889799,645.50781 c -1.757812,5.07813 1.953125,10.35156 7.421875,10.35156 h 32.617186 c 9.57031,0 18.75,-4.49218 24.60938,-11.91406 l 73.63281,-89.25781 c 3.125,-3.90625 8.00782,-6.25 12.89063,-6.05469 l 237.69531,5.27344 c 2.73438,0.19531 4.49219,2.73437 3.51563,5.27344 l -97.85157,279.10156 c -3.90625,10.15625 -0.19531,21.09375 10.74219,21.09375 h 46.28906 c 10.74219,0 20.70313,-5.46875 26.36719,-14.45313 l 190.23438,-284.375 c 0.78125,-1.17187 1.95312,-1.75781 3.32031,-1.75781 l 126.75781,3.32031 c 6.44531,0.39063 28.51563,0.58594 35.15625,0.58594 86.52344,0 141.21094,-27.92968 141.21094,-62.5 C 937.49918,465.625 883.00699,437.5 796.28824,437.5 Z" />
</svg>
